<?xml version="1.0" standalone="no"?><!DOCTYPE svg PUBLIC "-//W3C//DTD SVG 1.1//EN" "http://www.w3.org/Graphics/SVG/1.1/DTD/svg11.dtd"><svg class="icon" width="64px" height="63.94px" viewBox="0 0 1025 1024" version="1.1" xmlns="http://www.w3.org/2000/svg"><path fill="#f4ea2a" d="M962.04371416 407.85714248a32.14285752 32.14285752 0 0 0-25.71428583-21.85714248l-273.85714249-39.21428584L540.32942832 99.28571416a32.78571416 32.78571416 0 0 0-56.57142832 0l-122.14285752 247.5L89.04371416 383.42857168a32.14285752 32.14285752 0 0 0-25.71428583 21.85714248 32.14285752 32.14285752 0 0 0 8.35714335 32.14285752l197.35714248 192.85714248-46.92857168 273.85714336a32.14285752 32.14285752 0 0 0 12.85714336 30.85714248 30.85714248 30.85714248 0 0 0 18.64285664 5.78571416 29.57142832 29.57142832 0 0 0 14.14285752-3.85714248l244.28571416-128.5714292 244.28571416 128.5714292a30.21428584 30.21428584 0 0 0 32.78571416 0 32.14285752 32.14285752 0 0 0 12.85714336-30.85714336l-46.92857168-271.9285708 197.35714336-192.85714336a32.14285752 32.14285752 0 0 0 9.64285664-33.42857168z"  /></svg>