<?xml version="1.0" standalone="no"?><!DOCTYPE svg PUBLIC "-//W3C//DTD SVG 1.1//EN" "http://www.w3.org/Graphics/SVG/1.1/DTD/svg11.dtd"><svg class="icon" width="200px" height="200.00px" viewBox="0 0 1024 1024" version="1.1" xmlns="http://www.w3.org/2000/svg"><path fill="#1296db" d="M976.738462 649.846154v322.953846c0 27.569231-23.630769 51.2-51.2 51.2h-153.6c-7.876923 0-15.753846-7.876923-15.753847-15.753846v-31.507692c0-3.938462 3.938462-3.938462 3.938462-3.938462H905.846154c11.815385 0 19.692308-7.876923 19.692308-19.692308v-287.507692c0-7.876923-7.876923-15.753846-15.753847-15.753846h-137.846153c-7.876923 0-15.753846-7.876923-15.753847-15.753846v-19.692308c0-7.876923 7.876923-15.753846 15.753847-15.753846h153.6c31.507692 3.938462 51.2 23.630769 51.2 51.2zM685.292308 118.153846h-145.723077V31.507692c0-19.692308-15.753846-31.507692-31.507693-31.507692-19.692308 0-35.446154 15.753846-35.446153 31.507692V118.153846H330.830769c-27.569231 0-51.2 23.630769-51.2 51.2v850.707692c0 3.938462 3.938462 3.938462 3.938462 3.938462h39.384615c3.938462 0 3.938462-3.938462 3.938462-3.938462V189.046154c0-11.815385 7.876923-19.692308 19.692307-19.692308h315.076923c11.815385 0 19.692308 7.876923 19.692308 19.692308v831.015384c0 3.938462 3.938462 3.938462 3.938462 3.938462h39.384615c3.938462 0 3.938462-3.938462 3.938462-3.938462V169.353846c7.876923-27.569231-15.753846-51.2-43.323077-51.2zM244.184615 476.553846H90.584615c-27.569231 0-51.2 23.630769-51.2 51.2v445.046154c0 27.569231 23.630769 51.2 51.2 51.2h153.6c7.876923 0 15.753846-7.876923 15.753847-15.753846v-31.507692c0-3.938462-3.938462-3.938462-3.938462-3.938462H110.276923c-11.815385 0-19.692308-7.876923-19.692308-19.692308V543.507692c0-7.876923 7.876923-15.753846 15.753847-15.753846h137.846153c7.876923 0 15.753846-7.876923 15.753847-15.753846v-19.692308c-3.938462-7.876923-7.876923-15.753846-15.753847-15.753846z m185.107693-185.107692H472.615385V224.492308H429.292308v66.953846z m114.215384 0h43.323077V224.492308h-43.323077v66.953846z m-114.215384 129.969231H472.615385V354.461538H429.292308v66.953847z m114.215384 0h43.323077V354.461538h-43.323077v66.953847z m-114.215384 110.276923H472.615385v-66.953846H429.292308v66.953846z m114.215384 0h43.323077v-66.953846h-43.323077v66.953846z m-114.215384 129.96923H472.615385v-66.953846H429.292308v66.953846z m114.215384 0h43.323077v-66.953846h-43.323077v66.953846z m-114.215384 114.215385H472.615385V708.923077H429.292308v66.953846z m114.215384 0h43.323077V708.923077h-43.323077v66.953846zM429.292308 905.846154H472.615385v-66.953846H429.292308V905.846154z m-220.553846-311.138462H165.415385v66.953846h43.323077v-66.953846z m0 114.215385H165.415385v66.953846h43.323077V708.923077z m-43.323077 196.923077h43.323077v-66.953846H165.415385V905.846154z m677.415384-181.169231h-43.323077v66.953846h43.323077v-66.953846z m-43.323077 177.230769h43.323077v-66.953846h-43.323077v66.953846z m-256 3.938462h43.323077v-66.953846h-43.323077V905.846154z m-114.215384 118.153846H472.615385v-66.953846H429.292308V1024z m114.215384 0h43.323077v-66.953846h-43.323077V1024z"  /></svg>