<?xml version="1.0" standalone="no"?><!DOCTYPE svg PUBLIC "-//W3C//DTD SVG 1.1//EN" "http://www.w3.org/Graphics/SVG/1.1/DTD/svg11.dtd"><svg class="icon" width="200px" height="200.00px" viewBox="0 0 1024 1024" version="1.1" xmlns="http://www.w3.org/2000/svg"><path fill="#333333" d="M645.01380741 944.78032592c-18.44717037 0-33.37481482-14.92764445-33.37481482-33.37481481V756.18228148c0-54.97742222-44.78293333-99.76035555-99.76035556-99.76035556s-99.76035555 44.78293333-99.76035555 99.76035556v155.22322963c0 18.44717037-14.92764445 33.37481482-33.37481481 33.37481481s-33.37481482-14.92764445-33.37481482-33.37481481V756.18228148c0-91.7504 74.63822222-166.38862222 166.38862223-166.38862223s166.38862222 74.63822222 166.38862222 166.38862223v155.22322963c0.24272592 18.44717037-14.68491852 33.37481482-33.13208889 33.37481481zM822.44645925 301.3138963c-18.44717037 0-33.37481482-14.92764445-33.3748148-33.37481482v-110.92574815c0-18.44717037 14.92764445-33.37481482 33.3748148-33.37481481s33.37481482 14.92764445 33.37481483 33.37481481v110.92574815c0 18.44717037-14.92764445 33.37481482-33.37481483 33.37481482z"  /><path fill="#333333" d="M645.01380741 944.78032592c-18.44717037 0-33.37481482-14.92764445-33.37481482-33.37481481V756.18228148c0-54.97742222-44.78293333-99.76035555-99.76035556-99.76035556s-99.76035555 44.78293333-99.76035555 99.76035556v155.22322963c0 18.44717037-14.92764445 33.37481482-33.37481481 33.37481481s-33.37481482-14.92764445-33.37481482-33.37481481V756.18228148c0-91.7504 74.63822222-166.38862222 166.38862223-166.38862223s166.38862222 74.63822222 166.38862222 166.38862223v155.22322963c0.24272592 18.44717037-14.68491852 33.37481482-33.13208889 33.37481481z"  /><path fill="#333333" d="M822.44645925 966.86838518H201.31081482c-42.71976297 0-77.6722963-34.83117037-77.6722963-77.67229629V311.87247408c0-18.44717037 14.92764445-33.37481482 33.37481481-33.37481483s33.37481482 14.92764445 33.37481482 33.37481483v577.44497777c0 6.06814815 4.97588148 11.16539259 11.1653926 11.1653926h621.2570074c6.06814815 0 11.16539259-4.97588148 11.1653926-11.1653926V325.82921482c0-18.44717037 14.92764445-33.37481482 33.3748148-33.37481482s33.37481482 14.92764445 33.37481482 33.37481482v563.48823703c-0.60681482 42.71976297-35.31662222 77.55093333-78.27911112 77.55093333z"  /><path fill="#333333" d="M977.79105185 412.23964445c-6.06814815 0-12.1362963-1.57771852-17.47626667-4.97588148L494.40237037 118.784c-15.65582222-9.58767408-20.51034075-30.21937778-10.8013037-45.8752 9.58767408-15.65582222 30.21937778-20.51034075 45.8752-10.8013037l466.03377778 288.3584c15.65582222 9.58767408 20.51034075 30.21937778 10.8013037 45.8752-6.5536 10.31585185-17.3549037 15.89854815-28.5202963 15.89854815z"  /><path fill="#333333" d="M46.08758518 412.23964445c-11.16539259 0-21.9666963-5.5826963-28.39893333-15.7771852-9.58767408-15.65582222-4.85451852-36.16616297 10.8013037-45.8752l466.03377778-288.3584c15.65582222-9.58767408 36.16616297-4.85451852 45.8752 10.80130372 9.58767408 15.65582222 4.85451852 36.16616297-10.8013037 45.8752L63.44248889 407.26376297c-5.46133333 3.2768-11.52948148 4.97588148-17.35490371 4.97588148z"  /></svg>