<?xml version="1.0" standalone="no"?><!DOCTYPE svg PUBLIC "-//W3C//DTD SVG 1.1//EN" "http://www.w3.org/Graphics/SVG/1.1/DTD/svg11.dtd"><svg class="icon" width="200px" height="200.00px" viewBox="0 0 1024 1024" version="1.1" xmlns="http://www.w3.org/2000/svg"><path fill="#1296db" d="M992.01024 448H768v-96a31.983616 31.983616 0 0 0-32-32h-192V256h256a31.993856 31.993856 0 0 0 26.624-49.750016L774.467584 128l52.146176-78.249984A31.993856 31.993856 0 0 0 799.98976 0H512a31.983616 31.983616 0 0 0-32 32V320h-192A31.983616 31.983616 0 0 0 256 352v96H32A31.985664 31.985664 0 0 0 0 480.01024v512A31.981568 31.981568 0 0 0 32 1024H992.01024A31.981568 31.981568 0 0 0 1024 992.01024v-512a31.985664 31.985664 0 0 0-31.98976-32.01024zM544 64h196.216832l-30.840832 46.249984a32.028672 32.028672 0 0 0 0 35.500032l30.840832 46.249984h-196.216832v-128zM64 512H256v448H64V512zM640 832a31.985664 31.985664 0 0 0-32 32.01024v95.98976h-192v-95.98976a32 32 0 1 0-64 0v95.98976H320V384h384v576h-32v-95.98976a31.985664 31.985664 0 0 0-32-32.01024z m320 128H768V512h192v448zM352 640h64v-64h-64v64z m-224 0h64v-64H128v64z m0 128h64v-64H128V768z m0 128h64v-64H128v64z m768-320h-64v64h64v-64z m0 128h-64V768h64v-64z m0 128h-64v64h64v-64zM480 640h64v-64h-64v64z m192-64h-64v64h64v-64zM352 768h64v-64h-64V768z m128 0h64v-64h-64V768z m0 128h64v-64h-64v64z m192-192h-64V768h64v-64zM352 512h64v-64h-64V512z m128 0h64v-64h-64V512z m192-64h-64V512h64v-64z"  /></svg>