<?xml version="1.0" standalone="no"?><!DOCTYPE svg PUBLIC "-//W3C//DTD SVG 1.1//EN" "http://www.w3.org/Graphics/SVG/1.1/DTD/svg11.dtd"><svg class="icon" width="200px" height="175.04px" viewBox="0 0 1170 1024" version="1.1" xmlns="http://www.w3.org/2000/svg"><path fill="#1296db" d="M977.993 532.48c73.143-94.574 129.317-174.811 129.317-265.509C1107.31 119.442 983.479 0 830.464 0 677.522 0 553.691 119.515 553.691 266.971c0 81.408 48.128 159.232 111.104 243.347L589.093 534.6l-146.798-46.446c18.14-30.354 29.769-59.757 29.769-91.428 0-83.676-67.73-151.406-151.186-151.406a151.26 151.26 0 0 0-151.113 151.406c0 34.962 15.36 68.754 37.449 103.863h-0.732L0 962.56 311.954 844.8l283.868 117.76L862.354 844.8l307.932 117.76-192.293-430.08zM830.537 137.29c74.24 0 134.437 58.001 134.437 129.608 0 71.68-60.27 129.756-134.437 129.756-74.313 0-134.363-58.076-134.363-129.756s60.05-129.609 134.363-129.609z m-509.66 185.855a73.509 73.509 0 0 1 0 147.164 73.509 73.509 0 0 1 0-147.164z m536.138 451.73l-261.34 113.226-278.528-113.226-207.725 94.647 119.003-307.127 19.456-3.657c23.625 31.598 49.445 64.951 72.997 101.961 29.403-46.884 60.196-85.87 86.528-121.636l181.76 58.368 113.737-37.01c41.691 53.394 86.455 109.714 127.561 171.885 38.546-59.245 78.41-110.884 115.785-158.72l120.028 299.667-209.262-98.378z"  /></svg>