<?xml version="1.0" standalone="no"?><!DOCTYPE svg PUBLIC "-//W3C//DTD SVG 1.1//EN" "http://www.w3.org/Graphics/SVG/1.1/DTD/svg11.dtd"><svg class="icon" width="200px" height="200.00px" viewBox="0 0 1024 1024" version="1.1" xmlns="http://www.w3.org/2000/svg"><path fill="#1296db" d="M947.2 1024H204.8v-51.2h742.4c14.336 0 25.6-11.264 25.6-25.6V76.8c0-14.336-11.264-25.6-25.6-25.6H332.8c-14.336 0-25.6 11.264-25.6 25.6v742.4H256V76.8c0-42.496 34.304-76.8 76.8-76.8h614.4c42.496 0 76.8 34.304 76.8 76.8v870.4c0 42.496-34.304 76.8-76.8 76.8z"  /><path fill="#1296db" d="M230.4 1024H76.8c-42.496 0-76.8-34.304-76.8-76.8V281.6c0-42.496 34.304-76.8 76.8-76.8h153.6c42.496 0 76.8 34.304 76.8 76.8v665.6c0 42.496-34.304 76.8-76.8 76.8zM76.8 256c-14.336 0-25.6 11.264-25.6 25.6v665.6c0 14.336 11.264 25.6 25.6 25.6h153.6c14.336 0 25.6-11.264 25.6-25.6V281.6c0-14.336-11.264-25.6-25.6-25.6H76.8zM537.6 384H435.2c-28.16 0-51.2-23.04-51.2-51.2V230.4c0-28.16 23.04-51.2 51.2-51.2h102.4c28.16 0 51.2 23.04 51.2 51.2v102.4c0 28.16-23.04 51.2-51.2 51.2zM665.6 384h204.8c14.336 0 25.6-11.264 25.6-25.6s-11.264-25.6-25.6-25.6h-204.8c-14.336 0-25.6 11.264-25.6 25.6s11.264 25.6 25.6 25.6zM665.6 230.4h204.8c14.336 0 25.6-11.264 25.6-25.6s-11.264-25.6-25.6-25.6h-204.8c-14.336 0-25.6 11.264-25.6 25.6s11.264 25.6 25.6 25.6zM409.6 691.2h460.8c14.336 0 25.6-11.264 25.6-25.6s-11.264-25.6-25.6-25.6H409.6c-14.336 0-25.6 11.264-25.6 25.6s11.264 25.6 25.6 25.6zM409.6 537.6h460.8c14.336 0 25.6-11.264 25.6-25.6s-11.264-25.6-25.6-25.6H409.6c-14.336 0-25.6 11.264-25.6 25.6s11.264 25.6 25.6 25.6zM409.6 844.8h460.8c14.336 0 25.6-11.264 25.6-25.6s-11.264-25.6-25.6-25.6H409.6c-14.336 0-25.6 11.264-25.6 25.6s11.264 25.6 25.6 25.6z"  /></svg>