<?xml version="1.0" standalone="no"?><!DOCTYPE svg PUBLIC "-//W3C//DTD SVG 1.1//EN" "http://www.w3.org/Graphics/SVG/1.1/DTD/svg11.dtd"><svg class="icon" width="200px" height="200.00px" viewBox="0 0 1024 1024" version="1.1" xmlns="http://www.w3.org/2000/svg"><path fill="#333333" d="M479.61994052 975.96251653l-254.07471188-254.07471185-5.52336372-5.52336243-5.52336243-5.52336373c-66.2803595-71.80372323-110.46726541-171.22426249-110.4672667-281.69152791C104.03123579 202.69165606 291.82558815 14.8973037 518.28348269 14.8973037S932.53572961 202.69165606 932.53572961 429.14955061c0 110.46726541-44.18690591 209.88780468-110.46726541 281.69152791l-265.12143803 265.12143801-38.66354348 38.66354349-38.66354217-38.66354349z m38.66354217-38.66354346l254.07471188-254.07471058c66.2803595-66.2803595 104.94390299-154.65417262 104.94390298-254.07471188C877.30209755 230.3084721 717.12456122 70.13093706 518.28348269 70.13093706S159.26486914 230.3084721 159.26486914 429.14955061c0 99.42053925 38.66354348 187.79435236 99.42053926 248.55134815l259.59807429 259.59807431z m0-314.83170766C413.33958101 622.46726541 324.96576791 534.0934536 324.96576791 429.14955061S413.33958101 235.83183582 518.28348269 235.83183582 711.60119879 324.20564764 711.60119879 429.14955061 623.22738569 622.46726541 518.28348269 622.46726541z m0-55.23363206c77.32708566 0 138.08408273-60.75699579 138.08408274-138.08408274S595.61056966 291.06546788 518.28348269 291.06546788 380.19940126 351.82246496 380.19940126 429.14955061s60.75699579 138.08408273 138.08408143 138.08408274z"  /></svg>