<?xml version="1.0" standalone="no"?><!DOCTYPE svg PUBLIC "-//W3C//DTD SVG 1.1//EN" "http://www.w3.org/Graphics/SVG/1.1/DTD/svg11.dtd"><svg class="icon" width="200px" height="200.00px" viewBox="0 0 1024 1024" version="1.1" xmlns="http://www.w3.org/2000/svg"><path fill="#333333" d="M512 612.12444445c-81.46488889 0-158.03733333-31.744-215.60888889-89.31555556C238.81955555 465.23733333 207.07555555 388.66488889 207.07555555 307.2s31.744-158.03733333 89.31555556-215.60888889C353.96266667 34.01955555 430.53511111 2.27555555 512 2.27555555s158.03733333 31.744 215.60888889 89.31555556C785.18044445 149.16266667 816.92444445 225.73511111 816.92444445 307.2s-31.744 158.03733333-89.31555556 215.60888889C670.03733333 580.38044445 593.46488889 612.12444445 512 612.12444445z m0-537.03111112c-128 0-232.10666667 104.10666667-232.10666667 232.10666667s104.10666667 232.10666667 232.10666667 232.10666667 232.10666667-104.10666667 232.10666667-232.10666667-104.10666667-232.10666667-232.10666667-232.10666667z"  /><path fill="#333333" d="M76.00355555 1021.72444445c-0.79644445 0-1.47911111 0-2.27555555-0.11377778-20.02488889-1.25155555-35.38488889-18.54577778-34.13333333-38.57066667 7.39555555-120.14933333 59.84711111-231.87911111 147.56977778-314.70933333C275.34222222 585.15911111 390.71288889 539.30666667 512 539.30666667s236.65777778 45.85244445 324.83555555 129.024c87.83644445 82.83022222 140.17422222 194.67377778 147.56977778 314.70933333 1.25155555 20.02488889-13.99466667 37.31911111-34.13333333 38.57066667-20.02488889 1.25155555-37.31911111-13.99466667-38.57066667-34.13333334-12.97066667-210.48888889-188.52977778-375.46666667-399.70133333-375.46666666-211.17155555 0-386.73066667 164.864-399.70133333 375.46666666-1.25155555 19.34222222-17.29422222 34.24711111-36.29511112 34.24711112z"  /></svg>